<?xml version="1.0" standalone="no"?>
<!DOCTYPE svg PUBLIC "-//W3C//DTD SVG 20010904//EN"
 "http://www.w3.org/TR/2001/REC-SVG-20010904/DTD/svg10.dtd">
<svg version="1.0" xmlns="http://www.w3.org/2000/svg"
 width="260.000000pt" height="260.000000pt" viewBox="0 0 260.000000 260.000000"
 preserveAspectRatio="xMidYMid meet">
<metadata>
Created by potrace 1.14, written by Peter Selinger 2001-2017
</metadata>
<g transform="translate(0.000000,260.000000) scale(0.100000,-0.100000)"
fill="#000000" stroke="none">
<path d="M223 2325 c-13 -9 -28 -25 -34 -37 -10 -18 -9 -20 4 -15 13 5 15 2 8
-16 -4 -12 -7 -443 -7 -957 1 -900 2 -936 20 -967 11 -17 30 -36 43 -42 14 -7
102 -11 221 -12 108 0 204 0 212 0 8 0 379 0 824 1 735 1 812 2 838 17 60 36
58 -8 57 1011 -1 892 -2 932 -20 962 -11 17 -31 36 -47 42 -19 8 -305 12
-1022 13 -547 1 -1013 5 -1035 8 -30 6 -46 4 -62 -8z"/>
</g>
</svg>
